<svg width="24" height="24" viewBox="0 0 24 24" fill="none" xmlns="http://www.w3.org/2000/svg">
<g clip-path="url(#clip0_50_129)">
<path d="M14.4001 14.4L9.6001 9.60001" stroke="#60A5FA" stroke-width="2" stroke-linecap="round" stroke-linejoin="round"/>
<path d="M18.6569 21.485C18.2819 21.8601 17.7732 22.0709 17.2428 22.071C16.7123 22.0711 16.2035 21.8605 15.8284 21.4855C15.4533 21.1105 15.2424 20.6018 15.2423 20.0713C15.2423 19.5409 15.4529 19.0321 15.8279 18.657L14.0609 20.425C13.6858 20.8001 13.1769 21.0109 12.6464 21.0109C12.1159 21.0109 11.607 20.8001 11.2319 20.425C10.8568 20.0498 10.646 19.541 10.646 19.0105C10.646 18.48 10.8568 17.9711 11.2319 17.596L17.5959 11.232C17.9711 10.8568 18.4799 10.6461 19.0104 10.6461C19.5409 10.6461 20.0498 10.8568 20.4249 11.232C20.8 11.6071 21.0108 12.116 21.0108 12.6465C21.0108 13.177 20.8 13.6858 20.4249 14.061L18.6569 15.828C19.032 15.453 19.5408 15.2423 20.0713 15.2424C20.6017 15.2425 21.1104 15.4533 21.4854 15.8285C21.8604 16.2036 22.071 16.7124 22.071 17.2428C22.0709 17.7733 21.8601 18.282 21.4849 18.657L18.6569 21.485Z" stroke="#60A5FA" stroke-width="2" stroke-linecap="round" stroke-linejoin="round"/>
<path d="M21.5001 21.5L20.1001 20.1" stroke="#60A5FA" stroke-width="2" stroke-linecap="round" stroke-linejoin="round"/>
<path d="M3.9 3.9L2.5 2.5" stroke="#60A5FA" stroke-width="2" stroke-linecap="round" stroke-linejoin="round"/>
<path d="M6.40401 12.768C6.02886 13.1432 5.52005 13.3539 4.98951 13.3539C4.45897 13.3539 3.95016 13.1432 3.57501 12.768C3.19986 12.3929 2.9891 11.884 2.9891 11.3535C2.9891 10.823 3.19986 10.3142 3.57501 9.93901L5.34301 8.17201C5.15725 8.3577 4.93674 8.50498 4.69407 8.60545C4.45139 8.70592 4.1913 8.7576 3.92865 8.75756C3.39821 8.75746 2.88952 8.54666 2.51451 8.17151C2.32882 7.98575 2.18153 7.76524 2.08106 7.52257C1.9806 7.27989 1.92891 7.0198 1.92896 6.75715C1.92905 6.22671 2.13986 5.71802 2.51501 5.34301L5.34301 2.51501C5.71802 2.13986 6.22671 1.92905 6.75715 1.92896C7.0198 1.92891 7.27989 1.9806 7.52257 2.08106C7.76524 2.18153 7.98575 2.32882 8.17151 2.51451C8.35726 2.7002 8.50462 2.92065 8.60518 3.16329C8.70573 3.40593 8.75751 3.666 8.75756 3.92865C8.7576 4.1913 8.70592 4.45139 8.60545 4.69407C8.50498 4.93674 8.3577 5.15725 8.17201 5.34301L9.93901 3.57501C10.3142 3.19986 10.823 2.9891 11.3535 2.9891C11.884 2.9891 12.3929 3.19986 12.768 3.57501C13.1432 3.95016 13.3539 4.45897 13.3539 4.98951C13.3539 5.52005 13.1432 6.02886 12.768 6.40401L6.40401 12.768Z" stroke="#60A5FA" stroke-width="2" stroke-linecap="round" stroke-linejoin="round"/>
</g>
<defs>
<clipPath id="clip0_50_129">
<rect width="24" height="24" fill="white"/>
</clipPath>
</defs>
</svg>
